<svg width="20" height="20" viewBox="0 0 20 20" fill="none" xmlns="http://www.w3.org/2000/svg">
  <path
    d="M10 2C5.5 2 1.9 5 0.7 10C1.9 15 5.5 18 10 18C14.5 18 18.1 15 19.3 10C18.1 5 14.5 2 10 2ZM10 4.2C13.2 4.2 15.9 6.2 17.1 10C15.9 13.8 13.2 15.8 10 15.8C6.8 15.8 4.1 13.8 2.9 10C4.1 6.2 6.8 4.2 10 4.2ZM10 6.1C7.85 6.1 6.1 7.85 6.1 10C6.1 12.15 7.85 13.9 10 13.9C12.15 13.9 13.9 12.15 13.9 10C13.9 7.85 12.15 6.1 10 6.1ZM10 7.9C11.16 7.9 12.1 8.84 12.1 10C12.1 11.16 11.16 12.1 10 12.1C8.84 12.1 7.9 11.16 7.9 10C7.9 8.84 8.84 7.9 10 7.9Z"
    fill="#0F766E"/>
</svg>
